<svg xmlns="http://www.w3.org/2000/svg" viewBox="-40 0 340 112">
<!-- J6: red and white delta-wing jet with smoke -->
<defs>
  <linearGradient id="j6-body" x1="0" y1="0" x2="0" y2="1"><stop offset="0" stop-color="#ffffff"/><stop offset="1" stop-color="#c9d0dc"/></linearGradient>
  <linearGradient id="j6-acc" x1="0" y1="0" x2="0" y2="1"><stop offset="0" stop-color="#ff4f45"/><stop offset="1" stop-color="#c7302b"/></linearGradient>
  <linearGradient id="j6-glass" x1="0" y1="0" x2="0.4" y2="1"><stop offset="0" stop-color="#bfe6ff"/><stop offset="0.5" stop-color="#4a7fb8"/><stop offset="1" stop-color="#1c2c48"/></linearGradient>
  <linearGradient id="j6-metal" x1="0" y1="0" x2="0" y2="1"><stop offset="0" stop-color="#9aa3b5"/><stop offset="1" stop-color="#4b5263"/></linearGradient>
  <radialGradient id="j6-burn" cx="0.85" cy="0.5" r="0.8"><stop offset="0" stop-color="#fff7c2"/><stop offset="0.35" stop-color="#ffb13b"/><stop offset="1" stop-color="#ff5a2e" stop-opacity="0"/></radialGradient>
  <radialGradient id="j6-smoke" cx="0.5" cy="0.4" r="0.6"><stop offset="0" stop-color="#ffffff"/><stop offset="1" stop-color="#ffffff" stop-opacity="0"/></radialGradient>
</defs>
<linearGradient id="j6-trail" x1="1" y1="0" x2="0" y2="0"><stop offset="0" stop-color="#fff" stop-opacity="0.95"/><stop offset="1" stop-color="#fff" stop-opacity="0"/></linearGradient><path d="M30,56 Q2,51 -38,53 Q-48,60 -38,68 Q2,69 30,64 Z" fill="url(#j6-trail)"/>
<path d="M40,54 L20,12 L40,12 L90,52 Z" fill="url(#j6-acc)"/><path d="M26,24 L44,24" stroke="#fff" stroke-width="3" stroke-linecap="round"/>
<path d="M30,56 L44,50 L198,48 Q244,48 270,56 L296,61 L270,66 Q244,72 198,72 L44,70 L30,64 Z" fill="url(#j6-body)"/>
<path d="M270,56 L296,61 L270,66 Q276,61 270,56 Z" fill="#c7302b"/>
<path d="M52,58 L230,58" stroke="#ff4f45" stroke-width="3.5" stroke-linecap="round"/>
<path d="M196,50 Q200,36 221.0,36 Q240,36 246,50 Z" fill="url(#j6-glass)"/><path d="M204,46 Q208,40 221.0,39" stroke="#fff" stroke-opacity="0.75" stroke-width="2" fill="none" stroke-linecap="round"/>
<path d="M168,62 L198,62 L200,72 L172,72 Z" fill="#4b5263"/>
<path d="M30,56 L42,54 L42,66 L30,64 Z" fill="#3a404e"/>
<path d="M60,53 L196,51" stroke="#fff" stroke-opacity="0.8" stroke-width="2.5" stroke-linecap="round"/>
<path d="M204,66 L70,102 L54,100 L96,66 Z" fill="url(#j6-acc)"/>
<path d="M190,68 L80,98" stroke="#fff" stroke-width="3" stroke-linecap="round" opacity="0.9"/>
<path d="M150,70 L118,70" stroke="#9e2622" stroke-width="1" opacity="0.5"/>
</svg>
